<?xml version="1.0" encoding="utf-8"?>
<!-- Generator: Adobe Illustrator 23.0.1, SVG Export Plug-In . SVG Version: 6.00 Build 0)  -->
<svg version="1.1" id="Capa_1" xmlns="http://www.w3.org/2000/svg" xmlns:xlink="http://www.w3.org/1999/xlink" x="0px" y="0px"
	 viewBox="0 0 250 286" style="enable-background:new 0 0 250 286;" xml:space="preserve">
<path d="M207.9,63.3v-6c0-24.3-22.6-42.8-46.3-36.6C147.3-7,109.1-5.8,95.7,21.1c-23-5.9-46,11.7-46,36.3v70.4
	c-11.1-4.1-24.2-2.8-34.6,5c-16.4,12.2-20,35.3-8.1,52l66.9,94c3.4,4.7,8.8,7.5,14.5,7.5h124.4c8.3,0,15.5-5.7,17.4-13.8l16.8-73.1
	c1.9-8.4,2.9-16.9,2.9-25.5v-73.4C250,77.7,230.2,60.1,207.9,63.3z M223.2,173.7c0,6.5-0.7,13.1-2.2,19.5l-15.2,66.2H93.1
	l-64.3-90.2c-8.1-11.3,8.4-23.9,16.4-12.6l15.1,21.2c5,7,16.2,3.5,16.2-5.2V57.3c0-14.3,20.4-13.8,20.4,0.4v85.6
	c0,4.9,4,8.9,8.9,8.9h3.8c4.9,0,8.9-4,8.9-8.9V37.8c0-14.3,20.4-13.8,20.4,0.4v105.1c0,4.9,4,8.9,8.9,8.9h3.8c4.9,0,8.9-4,8.9-8.9
	V56.9c0-14.3,20.4-13.8,20.4,0.4v86c0,4.9,4,8.9,8.9,8.9h3.8c4.9,0,8.9-4,8.9-8.9v-42.6c0-14.6,20.4-14.3,20.4-0.4L223.2,173.7
	L223.2,173.7z"/>
</svg>
