<?xml version="1.0" encoding="utf-8"?>
<!-- Generator: Adobe Illustrator 23.0.1, SVG Export Plug-In . SVG Version: 6.00 Build 0)  -->
<svg version="1.1" id="Capa_1" xmlns="http://www.w3.org/2000/svg" xmlns:xlink="http://www.w3.org/1999/xlink" x="0px" y="0px"
	 viewBox="0 0 250 250" style="enable-background:new 0 0 250 250;" xml:space="preserve">
<path d="M199.6,37.5c-10.9-16.6-32.3-20.6-48.2-11.5c-14.4-15.4-38.6-15.2-52.9,0c-23-13.2-53.1,2.5-54,29.7
	C21.9,50.3,0,67.2,0,90.4v27.8c0,16,7,31.2,19.1,41.8l47.7,41.5c2.1,1.8,1.5,2.7,1.5,16.1c0,8.6,7,15.6,15.6,15.6h123
	c8.6,0,15.6-7,15.6-15.6c0-11.5-0.5-15,1.9-20.7l20.9-48.7c3-6.9,4.5-14.2,4.5-21.8V70.6C250,44.8,223.5,27.3,199.6,37.5z
	 M226.6,126.5c0,4.3-0.9,8.6-2.6,12.5l-20.9,48.7c-2.6,5.9-3.8,12.2-3.8,18.7v3.5H91.8v-5c0-8-3.5-15.6-9.6-20.9l-47.7-41.5
	c-7-6.1-11.1-14.9-11.1-24.1V90.4c0-16.2,25.4-16.4,25.4,0.3v20.1c0,2.3,1,4.4,2.7,5.9l3.4,3c3.3,2.8,8.2,2.5,11-0.8
	c1.2-1.4,1.9-3.2,1.9-5.1V56.9c0-16.2,25.4-16.5,25.4,0.3v13.1c0,4.3,3.5,7.8,7.8,7.8h3.4c4.3,0,7.8-3.5,7.8-7.8V50.2
	c0-16.2,25.4-16.4,25.4,0.3v19.8c0,4.3,3.5,7.8,7.8,7.8h3.4c4.3,0,7.8-3.5,7.8-7.8V56.9c0-16.1,25.4-16.5,25.4,0.3v13.1
	c0,4.3,3.5,7.8,7.8,7.8h3.4c4.3,0,7.8-3.5,7.8-7.8c0-16.2,25.4-16.4,25.4,0.3V126.5z"/>
</svg>
