<?xml version="1.0" encoding="utf-8"?>
<!-- Generator: Adobe Illustrator 23.0.1, SVG Export Plug-In . SVG Version: 6.00 Build 0)  -->
<svg version="1.1" id="Capa_1" xmlns="http://www.w3.org/2000/svg" xmlns:xlink="http://www.w3.org/1999/xlink" x="0px" y="0px"
	 viewBox="0 0 250 250" style="enable-background:new 0 0 250 250;" xml:space="preserve">
<path d="M126,233.6l33.9,0c2.5,0,5-0.3,7.4-0.8l57.6-13.3c14.7-3.4,25.1-16.4,25.1-31.3V88.6c0-11.5-6.3-22.3-16.5-27.9l-47.5-26.6
	c-16.7-9.3-32.6-2.8-44.7,12l-70.2-27c-18.4-7.1-39,1.8-46.3,20c-7.3,18.2,1.8,38.9,20.3,46.1l38.2,9l-45.5-4.4
	C18.1,89.7,2,105.6,2,125.1c0,19.5,16.1,35.4,35.8,35.4h42.4c-1.8,12.7,4.2,24.8,14.7,31.5C88.5,212.7,104.2,233.6,126,233.6z
	 M126,210.4c-12.2,0-12.2-17.7,0-17.7c4.3,0,7.8-3.5,7.8-7.8v-3.3c0-4.3-3.5-7.8-7.8-7.8h-13.6c-12.2,0-12.2-17.7,0-17.7H126
	c4.3,0,7.8-3.5,7.8-7.8v-3.3c0-4.3-3.5-7.8-7.8-7.8H37.8c-16.7,0-16.7-24.4,0-24.4H126c4.3,0,7.8-3.5,7.8-7.8v-5.6
	c0-3.2-2-6.1-5-7.2l-75.3-29c-15.3-5.9-6.5-28.7,9.3-22.6l80.7,31c3.1,1.2,6.7,0.3,8.8-2.3l10.5-12.9c2.8-3.5,7.9-4.4,11.9-2.2
	l47.5,26.6c2.8,1.6,4.6,4.5,4.6,7.7v99.6c0,4.1-2.9,7.7-7.1,8.6L162,210.1c-0.7,0.2-1.4,0.2-2.1,0.2L126,210.4L126,210.4z"/>
</svg>
